<?xml version="1.0" encoding="UTF-8"?>
<svg id="Layer_1" xmlns="http://www.w3.org/2000/svg" version="1.1" viewBox="0 0 124 45">
  <!-- Generator: Adobe Illustrator 29.5.1, SVG Export Plug-In . SVG Version: 2.1.0 Build 141)  -->
  <defs>
    <style>
      .st0 {
        fill: #fff;
      }
    </style>
  </defs>
  <g>
    <path class="st0" d="M32.9,17.08l-.92,1.27-1.27,1.73c2.33-3.52,4.79-6.98,7.61-10.11,1.62-1.76,5.74-6.09,7.33-1.83v.07c.03.1.03.14.07.18,1.06,3.42-1.69,7.05-3.17,9.94.1-.14.18-.25.25-.25-.03,0-.99,2.29-1.09,2.53-.39.84-.77,1.76-1.19,2.65-.95,2.08-1.9,4.16-2.75,6.31-.64,1.59-1.51,3.49-1.51,5.28.03,1.59,1.83,1.55,3.03,1.44.53-.07.99-.25,1.48-.39.32-.1.99-.53,1.31-.49.74.07-.49,1.44-.67,1.66-1.02,1.02-2.78,1.94-4.26,1.44-1.51-.49-2.5-2.25-3-3.67-.64-1.73-.67-3.59-.28-5.39.39-1.59,1.16-3,1.8-4.48,0-.03.1-.67.28-.84-.03.1-.18.64-.18.64l.35-.89s-.03.03-.07,0c-.03-.46.49-1.31.67-1.73l.95-1.9c.6-1.19,1.19-2.36,1.69-3.59.49-1.24,1.09-2.4,1.69-3.59.18-.28,1.34-3,1.55-3,0,0-.18.53-.14.57.22-.6.74-1.59.57-2.22,0,.03-.03.64-.1.64-.03-.03.07-.67-.22-.77-.18-.03-.46.18-.57.25-.92.49-1.62,1.37-2.29,2.15-1.59,1.76-3.1,3.63-4.48,5.57-.7.99-1.41,2.01-2.15,2.97-.25.35-.57.57-.81.77-.32.32-.45.84-.7,1.19-1.27,2.11-2.68,4.12-3.91,6.27-.53.84-.89,1.66-1.27,2.6-.22.53-.28,1.37-.74,1.76-1.09,1.06-2.4-.32-2.47-1.48-.07-1.55.67-3.32,1.19-4.76.64-1.83,1.66-3.52,2.25-5.35,1.34-4.16,3.67-8,4.76-12.23.14-.53.64-1.94.1-2.36-.42-.32-1.24.1-1.59.32-1.41.84-2.36,2.43-3.1,3.81-.39.67-.7,1.37-.95,2.08-.14.32-.32.7-.35,1.06,0,.07.18.32.03.6-.22.35-.57.42-.95.22-.7-.39-.77-1.55-.74-2.25,0-.92.28-1.76.74-2.57.14-.25.35-.42.49-.7.14-.32.14-.64.39-.99,1.02-1.48,2.57-2.65,4.26-3.17,1.02-.32,2.11-.42,3,.28.77.64.89,1.51,1.13,2.4.53,1.73-.22,3.42-.67,5.15-.49,1.8-1.34,3.49-1.83,5.28-.35,1.31-.81,2.57-1.34,3.84l.18-.28c-.22.32-.35.64-.46.99.99-1.51,1.98-3.07,3.03-4.58ZM27.47,19.65c-.6,1.59-1.48,3.2-2.18,4.8-.45,1.09-.84,2.18-1.16,3.32-.14.49-.25,1.02-.32,1.55-.03.25.07.77.03.99.14-.35.07-.84.14-1.27.07-.46.22-.95.35-1.41.32-1.02.67-2.05,1.13-3.03.67-1.44,1.41-2.97,1.86-4.48v-.03l.14-.42v-.02ZM27.79,18.8c-.14.18-.14.28-.07.32.18-.18.18-.28.07-.32ZM27.75,19.09l-.03.03.03-.03ZM30.33,20.67l.1-.14-.1.14ZM30.43,20.53l.14-.22c-.07.07-.1.14-.14.22ZM36.35,12.5l.14-.22-.1.14s-.03.03-.03.07h-.01ZM36.35,12.46l.03-.03s-.03.03-.03.03ZM37.13,11.51l-.22.28.22-.28ZM37.13,11.51c.39-.46.77-.92,1.19-1.37-.42.42-.81.89-1.19,1.37ZM38.89,19.36c.77-1.51,1.73-2.89,2.53-4.41.99-1.83,1.83-3.84,2.29-5.92-.03.07-.03.1,0-.07v-.07c-.18.81-.7,1.98-.77,2.15l-1.37,2.85-2.68,5.47ZM43.75,8.76s-.03.07-.03.14c0-.03.03-.1.03-.14ZM45.69,8.27s0,.07.03.1l-.03-.1Z"/>
    <path class="st0" d="M60.49,23.84c-.45,1.06-.99,2.01-1.55,2.97-.67,1.06-1.34,2.08-2.11,3-.64.81-1.51,1.83-2.57,2.01-1.19.22-2.15-.77-2.53-1.83-.84-2.08-.25-4.26.39-6.27,0,0,0-.32.03-.57-.35.53-.84,1.16-1.16,1.66-.42.67-.74,1.34-1.19,1.98-.22.32-3.1,3.81-3.49,3.2,0,0,.42-.18.39-.25-.42.28-.99.35-1.48.22.1.07.18.1.14.1-.81.1-1.44-1.16-1.62-1.73-.28-.99-.22-2.08-.03-3.07.39-2.05,1.24-4.26,2.43-6.02.32-.42.64-.92,1.09-1.24.28-.25.53-.28.84-.49.53-.46.99-.84,1.76-.84,1.73,0,2.43,1.98,2.78,3.32.84-1.09,2.36-2.53,3.67-.95.7.84.25,1.48-.14,2.25-.67,1.24-1.19,2.75-1.48,4.02.03-.1.14-.64.28-.67.28-.07-2.25,7.9,1.37,3.42,1.09-1.37,2.04-2.82,3-4.26.42-.67.84-1.37,1.31-2.04.22-.28.84-.95.89-.18.07.81-.7,1.62-.99,2.3v-.02ZM51.54,21.24c0-.28-.7-2.22-.53-2.36.03-.03.35.99.39,1.06-.1-.42-.25-1.73-.89-1.73-1.16,0-2.05,2.15-2.43,2.97-.7,1.59-1.34,3.27-1.62,5,.1-.53,2.15-6.91,2.78-6.87-.49.1-2.36,5.53-2.47,6.02-.07.28-.64,2.11-.1,2.29.35.1,1.19-.99,1.37-1.24.67-.81,1.31-1.66,1.9-2.53l.92-1.31c.14-.25.32-.49.49-.74.12-.19.18-.37.18-.57ZM51.65,20.99v.35c.1-.1.1-.22,0-.35ZM52.49,22.68l-.18.25c-.03.1-.14.6-.14.6,0,0,.32-.84.32-.84Z"/>
    <path class="st0" d="M73.21,11.76c.03.49-.57.89-.99.99-.46.14-.99-.14-1.41-.07-.25.07-.18.18-.39.25-.32.1-.7.07-1.02.07-.46,0-1.44-.25-1.83,0-.07.03-.14.1-.22.22l.1-.22c-.22.03-.57.99-.81,1.62l.39-.77-.49,1.34c-.35.74-.67,1.51-.99,2.25-.64,1.48-1.19,2.92-1.76,4.44-.95,2.75-1.9,5.64-2.53,8.49-.1.49-.7,2.53-.03,2.82.1.07.84-.35.81-.32.18-.18.39-.35.57-.57-.14.1-.53.42-.53.35-.03-.22.84-.92.99-1.09.35-.35.67-.74.99-1.09l2.05-2.5c1.27-1.59,2.47-3.2,3.74-4.79.28-.35.92-1.59,1.37-1.69.57-.1.67.45.49.92-.32.95-1.27,1.73-1.76,2.57-.89,1.48-1.94,2.85-2.97,4.26-1.13,1.51-2.25,3.03-3.49,4.48-.57.7-1.31,1.69-2.18,2.11-.67.32-1.55-.07-2.11-.49-.64-.42-.99-1.06-1.13-1.76-.03-.22-.25-1.34-.03-1.59v.53l.07-.7c-.07.14-.07-.32-.07-.39,0-.28.07-.6.14-.89.07-.57.22-1.09.35-1.66.25-1.09.53-2.18.74-3.32.18-1.12.57-2.18.92-3.24.07-.18.77-2.33.95-2.33.03,0-.07.42-.07.45.14-.53.35-1.06.53-1.59-.07.18-.18.35-.18.28,0-.42.45-1.16.6-1.55l.42-1.24c.39-1.13.77-2.25,1.27-3.32-.99.07-1.94,0-2.85.18-1.34.25-3.03.1-4.37-.07-.18-.03-1.02-.07-.81-.45.07-.1.84-.28.99-.32.67-.25,1.37-.25,2.08-.28,1.37-.14,2.72-.07,4.09-.25.35-.03.95.07,1.27-.07.32-.1.32-.35.45-.67.25-.64.53-1.27.81-1.86.32-.67.6-1.37,1.02-1.98.28-.39.57-.49.77-.92.42-.95.92-1.9,1.59-2.72.7-.92,1.94-1.06,3.03-.84.53.1,1.27.42,1.02,1.13-.1.28-.45.45-.67.67,0,.03.32-.32.32-.18-.03.25-1.34,2.04-1.44,2.01-.03,0,.49-.89.53-.95-1.34,1.98-2.47,4.12-3.52,6.27.1,0,.22-.14.35-.39-.1.22-.18.35-.18.39,1.37-.07,2.78-.07,4.19-.14.28,0,.81-.39.84.1v.06ZM60.6,33.43s.07.07.1.07l-.1-.07ZM71.1,4.95c-2.82,3.98-4.58,8.7-6.56,13.11-1.16,2.57-2.15,5.25-2.92,7.97-.35,1.24-.64,2.47-.89,3.74l.18-.67c.39-1.66.95-3.32,1.55-4.9,1.27-3.49,2.47-7.08,4.06-10.43,1.41-3,2.68-6.09,4.58-8.81ZM65.25,17.82c-.32.7-.57,1.41-.84,2.08.28-.64.57-1.27.81-1.94,0-.03,0-.07.03-.14ZM68.73,10.52l-.35.77c.1-.22.25-.49.35-.77ZM69.69,8.66l-.84,1.62c.35-.81.67-1.59.84-1.62Z"/>
    <path class="st0" d="M86.67,23.84c-.46,1.06-.99,2.01-1.55,2.97-.67,1.06-1.34,2.08-2.11,3-.64.81-1.51,1.83-2.57,2.01-1.19.22-2.15-.77-2.53-1.83-.84-2.08-.25-4.26.39-6.27,0,0,0-.32.03-.57-.35.53-.84,1.16-1.16,1.66-.42.67-.74,1.34-1.19,1.98-.22.32-3.1,3.81-3.49,3.2,0,0,.42-.18.39-.25-.42.28-.99.35-1.48.22.1.07.18.1.14.1-.81.1-1.44-1.16-1.62-1.73-.28-.99-.22-2.08-.03-3.07.39-2.05,1.24-4.26,2.43-6.02.32-.42.64-.92,1.09-1.24.28-.25.53-.28.84-.49.53-.46.99-.84,1.76-.84,1.73,0,2.43,1.98,2.78,3.32.84-1.09,2.36-2.53,3.67-.95.7.84.25,1.48-.14,2.25-.67,1.24-1.19,2.75-1.48,4.02.03-.1.14-.64.28-.67.28-.07-2.25,7.9,1.37,3.42,1.09-1.37,2.05-2.82,3-4.26.42-.67.84-1.37,1.31-2.04.22-.28.84-.95.89-.18.07.81-.7,1.62-.99,2.3v-.02ZM77.72,21.24c0-.28-.7-2.22-.53-2.36.03-.03.35.99.39,1.06-.1-.42-.25-1.73-.89-1.73-1.16,0-2.04,2.15-2.43,2.97-.7,1.59-1.34,3.27-1.62,5,.1-.53,2.15-6.91,2.78-6.87-.49.1-2.36,5.53-2.47,6.02-.07.28-.64,2.11-.1,2.29.35.1,1.19-.99,1.37-1.24.67-.81,1.31-1.66,1.9-2.53l.92-1.31c.14-.25.32-.49.49-.74.12-.19.18-.37.18-.57ZM77.83,20.99v.35c.1-.1.1-.22,0-.35ZM78.67,22.68l-.18.25c-.03.1-.14.6-.14.6l.32-.84Z"/>
    <path class="st0" d="M99.91,22.08c-.22.77-.67,1.48-1.09,2.18-1.06,1.69-1.98,3.49-3.14,5.18-1.27,1.83-2.65,3.7-4.26,5.28-1.37,1.31-3.27,2.33-4.93.81-1.48-1.37-1.48-3.84-1.37-5.7.14-1.98.67-3.87,1.13-5.78.03-.07,0-.92.18-1.16-.03.07-.03.32-.07.53.07-.25.14-.49.25-.74h-.1c-.1-.7.39-1.8.6-2.47.25-.81.53-1.66.81-2.47.53-1.51,1.09-3,1.59-4.51.45-1.51,1.16-2.97,1.86-4.37.32-.67.67-1.34,1.06-2.01.1-.18.89-1.69,1.06-1.66l-.28.6,1.12-1.94-.03.03c.18-.28.42-.81.6-1.02l.81-1.09c.49-.6,1.09-1.44,1.9-1.69,1.55-.49,2.82,1.13,3.03,2.5l.03.03v.18c.22,2.15-1.06,4.68-2.01,6.52-.57,1.13-1.16,2.5-2.05,3.42-.6.67-.92,1.37-1.41,2.18-1.34,2.15-2.78,4.3-4.37,6.27-.39.49-.64.81-.81,1.44-.22.67-.39,1.34-.57,2.05-.22.7-.39,1.41-.57,2.11-.07.32-.39,1.31-.35,1.37-.1.42-.18.89-.22,1.31l.28-1.06c.18.28-.1,1.34-.14,1.66-.07.53-.1,1.09-.1,1.66,0,.67,0,2.18.89,2.33,1.19.14,2.47-1.66,3.07-2.4,1.44-1.73,2.65-3.67,3.84-5.57.64-.99,1.24-1.98,1.83-3,.39-.64.7-1.51,1.19-2.05.81-.84.89.45.74,1.02v.03ZM86.95,24.09c-.14,0-.32.74-.42,1.55v-.03c-.25,1.24-.39,2.53-.46,3.81l.1-1.12v.1c0-.25.07-.46.1-.7.22-1.06.25-2.4.67-3.39,0,0,0-.03.04-.1.03-.03.03-.14-.04-.1v-.02ZM91.42,18.07c2.6-4.19,5.57-8.6,7.16-13.32-.6,1.69-1.48,3.32-2.29,4.86-.49.89-.95,1.76-1.48,2.65-.32.53-.95,1.34-1.16,1.9.28-.92,1.13-1.98,1.63-2.82l1.48-2.75c.84-1.69,2.11-3.77,2.18-5.74v-.03c.07-1.86-1.51.25-1.76.64-.99,1.59-1.69,3.32-2.4,5-1.31,3.14-2.33,6.52-3.35,9.62h-.01ZM92.58,8.19s-.03.1-.03.14c.77-1.41,1.69-2.75,2.43-4.23-.35.64-.99,1.19-1.34,1.86-.39.74-.74,1.44-1.06,2.22Z"/>
  </g>
  <g>
    <path class="st0" d="M20.7,44.31l.16-.32c.28.28.79.48,1.31.48.74,0,1.06-.31,1.06-.7,0-1.09-2.44-.42-2.44-1.88,0-.58.45-1.09,1.46-1.09.45,0,.91.13,1.23.35l-.14.33c-.34-.22-.73-.33-1.09-.33-.72,0-1.05.32-1.05.72,0,1.09,2.44.43,2.44,1.87,0,.58-.46,1.08-1.48,1.08-.59,0-1.18-.21-1.47-.51Z"/>
    <path class="st0" d="M28.43,40.83v3.96h-.41v-1.83h-2.48v1.83h-.42v-3.96h.42v1.76h2.48v-1.76h.41Z"/>
    <path class="st0" d="M29.92,42.81c0-1.15.88-2.01,2.08-2.01s2.07.85,2.07,2.01-.89,2.01-2.07,2.01-2.08-.86-2.08-2.01ZM33.66,42.81c0-.94-.71-1.64-1.66-1.64s-1.67.7-1.67,1.64.71,1.64,1.67,1.64,1.66-.69,1.66-1.64Z"/>
    <path class="st0" d="M38.67,42.19c0,.84-.61,1.35-1.62,1.35h-1.06v1.25h-.42v-3.96h1.48c1.01,0,1.62.51,1.62,1.36ZM38.25,42.19c0-.63-.42-.99-1.21-.99h-1.05v1.98h1.05c.79,0,1.21-.36,1.21-.98Z"/>
    <path class="st0" d="M43.23,42.19c0,.84-.61,1.35-1.62,1.35h-1.06v1.25h-.42v-3.96h1.48c1.01,0,1.62.51,1.62,1.36ZM42.82,42.19c0-.63-.42-.99-1.21-.99h-1.05v1.98h1.05c.79,0,1.21-.36,1.21-.98Z"/>
    <path class="st0" d="M44.7,40.83h.42v3.96h-.42v-3.96Z"/>
    <path class="st0" d="M50.28,40.83v3.96h-.34l-2.54-3.21v3.21h-.42v-3.96h.34l2.55,3.21v-3.21h.41Z"/>
    <path class="st0" d="M54.91,42.81h.4v1.51c-.37.33-.9.5-1.45.5-1.2,0-2.09-.85-2.09-2.01s.88-2.01,2.09-2.01c.6,0,1.12.19,1.47.57l-.26.27c-.33-.33-.73-.46-1.19-.46-.98,0-1.7.7-1.7,1.64s.72,1.64,1.69,1.64c.38,0,.73-.08,1.03-.31v-1.33Z"/>
    <path class="st0" d="M62.19,42.19c0,.84-.61,1.35-1.62,1.35h-1.06v1.25h-.42v-3.96h1.48c1.01,0,1.62.51,1.62,1.36ZM61.78,42.19c0-.63-.42-.99-1.21-.99h-1.05v1.98h1.05c.79,0,1.21-.36,1.21-.98Z"/>
    <path class="st0" d="M63.66,40.83h.42v3.59h2.22v.36h-2.63v-3.96Z"/>
    <path class="st0" d="M70.04,43.73h-2.2l-.47,1.06h-.43l1.81-3.96h.41l1.81,3.96h-.44l-.47-1.06ZM69.89,43.39l-.95-2.13-.95,2.13h1.9Z"/>
    <path class="st0" d="M75.03,44.43v.36h-3.24v-.29l2.62-3.31h-2.58v-.36h3.14v.29l-2.62,3.31h2.68Z"/>
    <path class="st0" d="M78.89,43.73h-2.2l-.47,1.06h-.43l1.81-3.96h.41l1.81,3.96h-.44l-.47-1.06ZM78.74,43.39l-.95-2.13-.95,2.13h1.9Z"/>
    <path class="st0" d="M82.72,42.81c0-1.15.88-2.01,2.08-2.01s2.07.85,2.07,2.01-.89,2.01-2.07,2.01-2.08-.86-2.08-2.01ZM86.46,42.81c0-.94-.71-1.64-1.66-1.64s-1.67.7-1.67,1.64.71,1.64,1.67,1.64,1.66-.69,1.66-1.64Z"/>
    <path class="st0" d="M91.17,44.43v.36h-2.8v-3.96h2.71v.36h-2.29v1.41h2.05v.36h-2.05v1.47h2.38Z"/>
    <path class="st0" d="M92.33,44.31l.16-.32c.28.28.79.48,1.31.48.74,0,1.06-.31,1.06-.7,0-1.09-2.44-.42-2.44-1.88,0-.58.45-1.09,1.46-1.09.45,0,.91.13,1.23.35l-.14.33c-.34-.22-.74-.33-1.09-.33-.72,0-1.05.32-1.05.72,0,1.09,2.44.43,2.44,1.87,0,.58-.46,1.08-1.48,1.08-.59,0-1.18-.21-1.47-.51Z"/>
    <path class="st0" d="M97.46,41.19h-1.39v-.36h3.2v.36h-1.39v3.59h-.42v-3.59Z"/>
    <path class="st0" d="M103.3,44.43v.36h-2.8v-3.96h2.71v.36h-2.29v1.41h2.05v.36h-2.05v1.47h2.38Z"/>
  </g>
</svg>